<?xml version="1.0" encoding="UTF-8"?>
<svg width="95px" height="177px" viewBox="0 0 95 177" version="1.1" xmlns="http://www.w3.org/2000/svg" xmlns:xlink="http://www.w3.org/1999/xlink">
    <!-- Generator: sketchtool 60.1 (101010) - https://sketch.com -->
    <title>5DD61AC9-5A41-448A-BE8D-972F899AF075</title>
    <desc>Created with sketchtool.</desc>
    <defs>
        <path d="M23.5303908,0.199294803 L10.492,0.756015046 C3.44642529,1.05771826 -0.257505747,6.9763221 0.0153218391,13.5746367 L0.0153218391,13.5746367 L3.57048276,41.8418686 C3.57048276,41.8418686 11.3223448,43.6164457 19.9510115,43.4005848 L19.9510115,43.4005848 C29.3764138,43.1656479 37.7797011,39.72844 37.7797011,39.72844 L37.7797011,39.72844 L36.7822989,11.6012667 C36.5168851,5.1881909 30.9056322,0.18624275 24.1220115,0.186744752 L24.1220115,0.186744752 C23.9262874,0.186744752 23.728092,0.19126277 23.5303908,0.199294803" id="path-1"></path>
        <linearGradient x1="50%" y1="100%" x2="62.8731573%" y2="6.09068991%" id="linearGradient-3">
            <stop stop-color="#F3841B" offset="0%"></stop>
            <stop stop-color="#FDB644" offset="100%"></stop>
        </linearGradient>
        <path d="M0.814034483,0.905611648 C-0.986528736,5.12443664 1.28456322,7.58625456 8.79127586,20.2226495 L8.79127586,20.2226495 L20.6454368,16.0625587 C20.6454368,16.0625587 18.3723678,8.03604837 13.4066092,3.40507972 L13.4066092,3.40507972 C11.4473908,1.57779236 6.28096552,0.140560566 3.19089655,0.140058564 L3.19089655,0.140058564 C1.94785057,0.140058564 1.0413908,0.372485501 0.814034483,0.905611648" id="path-4"></path>
        <linearGradient x1="105.367139%" y1="93.0748584%" x2="-16.5103152%" y2="1.62241438%" id="linearGradient-6">
            <stop stop-color="#EA6D12" offset="0%"></stop>
            <stop stop-color="#FEB645" offset="100%"></stop>
        </linearGradient>
    </defs>
    <g id="Landing-Page-Extension" stroke="none" stroke-width="1" fill="none" fill-rule="evenodd">
        <g id="Landing-Page-Unsupported-Browser" transform="translate(-628.000000, -382.000000)">
            <g id="man-mini-illustration" transform="translate(675.500000, 470.500000) scale(-1, 1) translate(-675.500000, -470.500000) translate(628.000000, 382.000000)">
                <path d="M95,171.5 C95,174.539474 75.7542412,177 52.0039863,177 C28.2537313,177 9,174.539474 9,171.5 C9,168.460526 28.2696765,166 52.0039863,166 C75.7382961,166 95,168.460526 95,171.5 Z" id="Path" fill-opacity="0.273601399" fill="#DDDCDC" fill-rule="nonzero"></path>
                <g id="Group-115">
                    <g id="Group-33" transform="translate(12.850575, 18.049985)">
                        <path d="M31.6749555,148.20016 C31.5827516,147.938103 31.4758485,147.705088 31.3502373,147.522053 C30.7883279,146.706838 29.0872324,147.141124 28.0375776,147.961066 C28.0375776,147.961066 22.0663716,151.808853 22.327616,153.853306 C22.6048959,156.02406 29.3177422,152.98541 31.575402,151.898682 C32.0150409,151.685929 32.2655951,151.207742 32.1914311,150.720099 C32.0704969,149.928523 31.8727262,148.764799 31.6749555,148.20016" id="Fill-1" fill="#007397"></path>
                        <path d="M30.5261448,150.450257 C30.0106391,150.333291 29.6859149,149.814221 29.8010759,149.291134 L28.9137931,139.35881 C29.028954,138.835222 34.0634018,138.295248 33.9482409,138.818334 L31.8962138,149.766028 C31.7810529,150.289616 31.2699954,150.61893 30.7544897,150.502465 L30.5261448,150.450257 Z" id="Fill-3" fill="#FAF6E1"></path>
                        <path d="M48.0339265,150.561203 C47.4521909,150.472348 46.9299034,149.845696 47.0173862,149.254338 L47.8454815,139.89418 C48.7261053,140.459926 50.7271803,141.695063 52.2449077,141.695063 L49.1402023,149.578129 C49.0527195,150.168985 48.5100299,150.576611 47.9282943,150.487757 L48.0339265,150.561203 Z" id="Fill-5" fill="#FAF6E1"></path>
                        <path d="M30.4192379,54.5381021 C28.969759,65.5383051 35.2495713,65.7719034 49.2586747,55.2388969 L50.0588701,91.1656756 L47.7852704,140.424419 C48.3351693,141.362974 48.826304,141.942868 49.2586747,142.1641 C50.2849731,142.68923 51.8533016,142.595022 52.1750073,141.859773 C57.2065855,130.360236 67.0324734,105.914236 69.5788931,85.0899452 C73.3154448,54.5285641 65.1948701,37.885189 64.2266287,36.1171379 C61.827031,37.5287676 39.4398471,40.2586546 33.2834333,39.1065599 C30.863077,42.7320185 31.3978586,47.1119862 30.4192379,54.5381021 Z" id="Fill-7" fill="#733E1E"></path>
                        <path d="M48.4944609,61.0009765 L49.3416103,38.1297644 C49.3416103,38.1297644 34.279254,39.6121764 32.2305759,38.9721238 C29.6678747,45.9901121 31.6888747,47.5714184 26.3400701,65.6861614 C22.6878788,78.0555452 26.8492006,121.244998 28.8997141,139.997484 C29.1193501,142.006113 30.8489985,141.737114 31.8084727,141.737114 C32.4481221,141.737114 33.0616035,141.346115 33.6489169,140.564117 L48.4944609,61.0009765 Z" id="Fill-9" fill="#864F2F"></path>
                        <path d="M58.6675001,152.166949 C58.6306546,152.659794 58.2311335,153.028868 57.7738155,152.992333 L46.6753661,152.110283 C46.0894501,152.06331 45.6942638,151.450423 45.8560951,150.841264 L46.1783128,148.67901 C46.2700654,148.061649 46.7866251,147.620997 47.3638717,147.66797 C47.3638717,147.66797 47.5777202,148.643221 48.6108398,148.874358 C49.4467274,149.06076 49.7870066,148.330067 49.9228293,147.795468 C49.9885733,147.536744 50.2602187,147.398807 50.4942962,147.51363 L58.2029575,151.293846 C58.510726,151.45266 58.6949536,151.799366 58.6675001,152.166949" id="Fill-11" fill="#007397"></path>
                        <path d="M29.3381042,51.3175714 C27.8886253,62.3177744 34.4261985,66.199925 48.9508239,62.9640233 L47.2794177,96.5981806 C58.9641103,99.2853097 66.5851791,99.97823 70.1426242,98.6769412 C70.9469211,93.0862181 71.2741805,69.8341037 71.0626402,65.5349584 C70.0741345,45.4548775 65.1948701,37.885189 64.2266287,36.1171379 C61.827031,37.5287676 39.4398471,40.2586546 33.2834333,39.1065599 C30.863077,42.7320185 30.3167249,43.8914555 29.3381042,51.3175714 Z" id="Fill-13" fill="#1B0631"></path>
                        <path d="M32.230477,38.9719732 C29.6677759,45.9899615 27.9698861,43.8214287 24.2654608,62.3553434 C23.6153149,65.6079083 21.0274761,82.3895408 21.5772201,94.2431838 C22.6249975,94.6096642 30.0712052,95.625424 43.915843,97.2904634 L49.7481928,67.2967321 L49.3420057,38.1296138 C49.3420057,38.1296138 37.138553,33.6233383 35.0893805,32.9832857" id="Fill-15" fill="#250845"></path>
                        <path d="M28.0947672,148.582999 C28.0947672,148.582999 26.7722684,144.119724 28.8398647,144.641022 C30.907461,145.161648 29.9078597,150.120693 29.9078597,150.120693 L28.0947672,148.582999 Z" id="Fill-17" fill="#007397"></path>
                        <path d="M49.2793904,149.250925 C49.2793904,149.250925 50.6946275,144.25418 51.8197849,145.048339 C52.9449424,145.843132 51.4807308,149.480814 51.4807308,149.480814 L49.2793904,149.250925 Z" id="Fill-19" fill="#007397"></path>
                        <path d="M29.0793678,46.0580831 C29.0793678,46.0580831 36.6676322,48.1258295 39.9242644,40.9371605 C40.7397816,39.1379853 40.9127701,36.9211443 40.9127701,36.9211443 L34.3046092,33.4191782 L34.2141609,35.3157419 C34.2141609,35.3157419 30.3115402,42.3889504 29.0793678,46.0580831" id="Fill-21" fill="#331159"></path>
                        <path d="M55.0561126,36.834298 C55.0561126,36.834298 54.6359977,46.8577724 61.2219172,49.8075362 C62.7956184,50.5123471 65.9138598,51.1654517 68.0935149,50.1253035 C68.0935149,50.1253035 65.2599632,40.2875699 62.4921471,38.2228356 L62.1367793,36.1515752 L55.0561126,36.834298 Z" id="Fill-23" fill="#331159"></path>
                        <path d="M33.1332793,29.9106861 C35.622831,39.1736274 23.2032448,40.1756234 13.1160379,35.6601153 C5.63799195,32.3122638 0.0979114943,26.0934627 0.0979114943,26.0934627 L1.72746322,24.671793 C1.72746322,24.671793 32.7724747,28.5678307 33.1332793,29.9106861" id="Fill-25" fill="#864F2F"></path>
                        <path d="M26.9384621,36.4060903 L23.2048759,34.9412484 L31.5271057,5.38336929 C34.2257264,-2.89815807 41.3716345,14.6648847 41.3716345,14.6648847 L34.5894966,32.9287222 C33.4324506,36.0446488 29.9968989,37.6063771 26.9384621,36.4060903" id="Fill-27" fill="#864F2F"></path>
                        <path d="M25.3300149,19.6662304 L39.8402908,26.6209664 C40.1309115,26.760021 40.2154287,27.1395345 40.0117966,27.3920415 L38.0436816,29.8362894 C37.8988655,30.0155041 37.6522333,30.0712263 37.4466241,29.9698219 L24.6810609,23.6973067 C24.4991759,23.6079503 24.3889575,23.4146795 24.4037851,23.2098627 L24.6266931,20.0833941 C24.6519,19.7319927 25.0161644,19.5156298 25.3300149,19.6662304" id="Fill-29" fill="#EF7F1E"></path>
                        <path d="M34.9297897,0.336692756 C30.693054,1.95765729 28.5993989,6.46663945 25.3773644,20.8575314 L38.6213644,27.0502284 C38.6213644,27.0502284 43.755169,15.792331 42.8922034,12.1071342 C42.0292379,8.42193733 38.3668241,-0.97805054 34.9297897,0.336692756" id="Fill-31" fill="#EF7F1E"></path>
                    </g>
                    <g id="Group-36" transform="translate(41.022989, 16.543979)">
                        <mask id="mask-2" fill="white">
                            <use xlink:href="#path-1"></use>
                        </mask>
                        <g id="Clip-35"></g>
                        <path d="M23.5303908,0.199294803 L10.492,0.756015046 C3.44642529,1.05771826 -0.257505747,6.9763221 0.0153218391,13.5746367 L0.0153218391,13.5746367 L3.57048276,41.8418686 C3.57048276,41.8418686 11.3223448,43.6164457 19.9510115,43.4005848 L19.9510115,43.4005848 C29.3764138,43.1656479 37.7797011,39.72844 37.7797011,39.72844 L37.7797011,39.72844 L36.7822989,11.6012667 C36.5168851,5.1881909 30.9056322,0.18624275 24.1220115,0.186744752 L24.1220115,0.186744752 C23.9262874,0.186744752 23.728092,0.19126277 23.5303908,0.199294803" id="Fill-34" fill="url(#linearGradient-3)" mask="url(#mask-2)"></path>
                    </g>
                    <g id="Group-43" transform="translate(53.873563, 11.021956)">
                        <path d="M2.00610418,8.82169105 C1.65608303,7.90403383 1.46976885,7.07873798 1.44716165,6.34580348 L1.25534199,3.30917377 C1.22143119,2.20977203 2.48420079,1.29005622 4.07475335,1.25532929 L4.11752465,1.25462204 C5.70807721,1.21989511 7.0254255,2.0830762 7.0593363,3.18247794 L7.17663874,7.01685916 C7.19288977,7.53296634 6.46112126,8.4234168 4.7468392,8.80907944 C4.26596754,8.91726131 3.3523892,8.92146518 2.00610418,8.82169105 Z" id="Fill-37" fill="#A16643" transform="translate(4.215789, 5.073553) rotate(-19.000000) translate(-4.215789, -5.073553) "></path>
                        <path d="M1.07735633,4.48313454 C1.04070874,3.30857061 2.31616057,2.32765106 3.92647032,2.29282893 C5.53678007,2.25800681 6.87162125,3.18174508 6.90754059,4.35631252 L6.96877543,5.70866002 C6.46155524,6.42828773 4.84218206,7.42453196 3.15434035,6.45939401 C2.0489666,5.82673172 1.09821865,5.14908783 1.09821865,5.14908783 L1.07735633,4.48313454 Z" id="Fill-39" fill="#733E1E" transform="translate(4.022681, 4.575404) rotate(-19.000000) translate(-4.022681, -4.575404) "></path>
                        <path d="M28.6840644,40.1440977 L20.3984092,33.9529068 C20.3984092,33.9529068 20.2501333,27.0222669 19.4820644,24.1698914 C18.8805586,21.9334724 15.5310069,13.889392 15.5310069,13.889392 C12.5862483,5.69521294 23.6866736,9.52197436 25.000892,11.6022707 C35.5695011,28.3269701 28.6840644,40.1440977 28.6840644,40.1440977" id="Fill-41" fill="#733E1E"></path>
                    </g>
                    <g id="Group-46" transform="translate(63.758621, 16.543979)">
                        <mask id="mask-5" fill="white">
                            <use xlink:href="#path-4"></use>
                        </mask>
                        <g id="Clip-45"></g>
                        <path d="M0.814034483,0.905611648 C-0.986528736,5.12443664 1.28456322,7.58625456 8.79127586,20.2226495 L8.79127586,20.2226495 L20.6454368,16.0625587 C20.6454368,16.0625587 18.3723678,8.03604837 13.4066092,3.40507972 L13.4066092,3.40507972 C11.4473908,1.57779236 6.28096552,0.140560566 3.19089655,0.140058564 L3.19089655,0.140058564 C1.94785057,0.140058564 1.0413908,0.372485501 0.814034483,0.905611648" id="Fill-44" fill="url(#linearGradient-6)" mask="url(#mask-5)"></path>
                    </g>
                    <g id="Group-114" transform="translate(0.000000, 0.479914)">
                        <path d="M71.7024011,35.4616237 L84.9889069,30.9581635 C85.2933667,30.8537471 85.6131483,31.068102 85.6388494,31.3933993 L85.8904241,34.5404499 C85.9087115,34.7713709 85.7683437,34.9852237 85.5518609,35.057512 L73.9883207,38.8225272 C73.7955621,38.8862814 73.5845161,38.8245352 73.4550218,38.6669066 L71.4809759,36.2577989 C71.2590563,35.9867178 71.373723,35.5745741 71.7024011,35.4616237" id="Fill-47" fill="#EF7F1E"></path>
                        <polygon id="Fill-49" fill="#49195C" points="50.5940966 47.0611334 35.1823034 45.1946899 29.4104184 42.1450276 50.8659356 44.743892"></polygon>
                        <polygon id="Fill-51" fill="#49195C" points="34.956331 45.0469507 33.5047103 17.9910497 35.7866759 18.2676528 37.2378023 45.3235538"></polygon>
                        <polygon id="Fill-53" fill="#8245A3" points="35.1824517 45.1945393 3.10099195 40.7724034 4.94252874e-05 13.9328653 33.7451644 18.0201658"></polygon>
                        <path d="M18.9985862,29.6996444 C18.6506322,31.3492231 17.2993448,32.1499163 15.9801839,31.4882776 C14.661023,30.826639 13.8731839,28.9531674 14.2206437,27.3035888 C14.5685977,25.6540101 15.9198851,24.8533169 17.239046,25.5149556 C18.5587011,26.1765942 19.3465402,28.0500658 18.9985862,29.6996444" id="Fill-55" fill="#BC97C7"></path>
                        <path d="M21.030608,27.0366743 C20.8927115,28.211359 19.8434126,29.0507064 18.6863667,28.9101459 C17.5293207,28.7705893 16.7034241,27.704337 16.8413207,26.5291503 C16.9792172,25.3539635 18.0290103,24.5151182 19.1860563,24.6551767 C20.342608,24.7957373 21.1685046,25.8614876 21.030608,27.0366743" id="Fill-57" fill="#8245A3"></path>
                        <polygon id="Fill-59" fill="#9768B1" points="40.7078034 45.1626621 37.6256425 44.7891726 37.7116425 44.0572537 40.7938034 44.4307432"></polygon>
                        <polygon id="Fill-61" fill="#9768B1" points="46.1117667 45.8173732 43.0296057 45.4438837 43.1156057 44.7119647 46.1977667 45.0854542"></polygon>
                        <path d="M48.0815621,45.6847944 C48.0553667,45.9051733 47.858654,46.0623 47.641677,46.0361959 C47.4247,46.0100917 47.2695046,45.8102949 47.2957,45.5894141 C47.3214011,45.3690352 47.5181138,45.2119085 47.7350908,45.2380126 C47.9525621,45.2646187 48.1072632,45.4644155 48.0815621,45.6847944" id="Fill-63" fill="#9768B1"></path>
                        <path d="M12.6068586,39.1403447 C12.6068586,39.1403447 11.0445253,39.0590203 10.6342954,39.3411455 C10.3209391,39.5570063 9.93344483,40.705587 9.93344483,40.705587 C9.93344483,40.705587 10.6941,43.0213223 12.9483874,43.6633829 C13.3601,43.7803494 13.8019621,43.181461 14.3243874,42.7577712 C14.6708586,42.4766501 14.7336287,41.9666161 14.4642609,41.6091906 L12.6068586,39.1403447 Z" id="Fill-65" fill="#864F2F"></path>
                        <path d="M14.9965218,39.280102 L14.9905908,39.2796 C14.5457632,39.2188578 14.1375103,39.5361231 14.0782,39.9879249 L13.8033954,42.0727393 L14.6144644,42.1831797 L14.9965218,39.280102 Z" id="Fill-67" fill="#864F2F"></path>
                        <path d="M12.1594115,36.8379626 L12.1594115,36.8379626 C12.6057218,36.9082429 12.9121586,37.3324346 12.8429632,37.7862444 L12.5281241,39.8595128 L11.7195264,39.7325063 L12.1594115,36.8379626 Z" id="Fill-69" fill="#864F2F"></path>
                        <path d="M11.1279552,36.1491656 L11.1279552,36.1491656 C11.5797023,36.1642257 11.9321046,36.6019714 11.9153,37.1275676 L11.8386908,39.5291452 L11.0211966,39.5025391 L11.1279552,36.1491656 Z" id="Fill-71" fill="#864F2F"></path>
                        <path d="M10.3597874,36.5749637 L10.3597874,36.5749637 C10.8115345,36.5895218 11.1639368,37.0277696 11.1471322,37.5533657 L11.070523,39.9549434 L10.2530287,39.9278352 L10.3597874,36.5749637 Z" id="Fill-73" fill="#864F2F"></path>
                        <path d="M8.95037586,37.7375502 L8.95037586,37.7375502 C9.3779046,37.5889576 9.8602954,37.8715848 10.0283414,38.3685668 L10.7949276,40.6421339 L9.93344483,40.7058882 L8.95037586,37.7375502 Z" id="Fill-75" fill="#864F2F"></path>
                        <path d="M48.3692172,44.6452486 C47.719769,44.5699483 46.2370103,43.7652391 46.1302517,43.2737791 C46.0491943,42.8982816 46.7885966,41.51627 46.7885966,41.51627 C46.7885966,41.51627 49.3171943,41.1302305 50.8449299,41.9339357 C51.2245161,42.1337325 51.0312632,42.7045088 51.1222057,43.3766895 C51.1829989,43.8229693 50.8829874,44.236619 50.4450793,44.3079033 C50.4450793,44.3079033 48.8916425,44.7059909 48.3692172,44.6452486" id="Fill-77" fill="#733E1E"></path>
                        <path d="M43.4821931,43.788532 L43.4821931,43.788532 C43.5849977,44.2358158 44.1524,44.4828008 44.7494575,44.3417382 L47.4797103,43.6941556 L47.2938713,42.8849284 L43.4821931,43.788532 Z" id="Fill-79" fill="#733E1E"></path>
                        <path d="M42.7958241,43.1470738 L42.7958241,43.1470738 C42.893192,43.5953616 43.4294563,43.8564027 43.9933989,43.7298982 L46.5724103,43.1520938 L46.3959621,42.3408586 L42.7958241,43.1470738 Z" id="Fill-81" fill="#733E1E"></path>
                        <path d="M43.0041023,42.2609398 L43.0041023,42.2609398 C43.0901023,42.6163573 43.5744701,42.7835239 43.7400448,42.7594279 C44.0138609,42.7207737 44.8397575,42.552603 44.8397575,42.552603 L44.5451828,41.8618482 L43.0041023,42.2609398 Z" id="Fill-83" fill="#733E1E"></path>
                        <path d="M44.5015897,41.8768581 C44.3355207,41.9295683 44.5772103,42.5796609 44.5772103,42.5796609 L47.0969115,42.3191219 L46.8542333,41.5164206 C46.8542333,41.5164206 44.9973253,41.7197315 44.5015897,41.8768581" id="Fill-85" fill="#733E1E"></path>
                        <path d="M44.3580092,44.1616199 L44.3580092,44.1616199 C44.4509287,44.5627195 44.9946069,44.7559903 45.1814345,44.7313922 C45.4898483,44.690228 46.3933425,44.441737 46.3933425,44.441737 L46.0972851,43.7293962 L44.3580092,44.1616199 Z" id="Fill-87" fill="#733E1E"></path>
                        <polygon id="Fill-89" fill="#733E1E" points="45.7697931 43.9015327 46.0455862 44.5134731 48.7180115 44.6138735 48.4002069 43.7644861"></polygon>
                        <path d="M71.1463667,41.1373589 C64.8125161,40.8035276 49.4985851,42.3015016 49.4985851,42.3015016 L49.7842632,44.2316994 C49.7842632,44.2316994 56.7922747,46.5328767 57.4318379,46.7853837 C63.4211943,49.1493112 76.312792,52.8811942 77.5182747,53.1070951 C83.7666195,54.2772618 84.830746,44.0238705 83.8644816,43.8140337 C80.1140908,42.9972764 76.7892517,41.4345441 71.1463667,41.1373589" id="Fill-91" fill="#733E1E"></path>
                        <path d="M53.3969552,8.14638842 C53.3969552,8.14638842 54.0622195,5.064598 55.1841736,4.70215254 C56.3056333,4.33970708 58.7719552,6.56508205 58.7719552,6.56508205 L53.3969552,8.14638842 Z" id="Fill-93" fill="#000000"></path>
                        <path d="M58.0831644,15.3200475 C58.0831644,15.3200475 62.2348885,13.0439703 62.3653713,11.0078501 C62.495854,8.97172994 60.7916701,8.68006677 60.7916701,8.68006677 L58.0831644,15.3200475 Z" id="Fill-95" fill="#000000"></path>
                        <path d="M53.1922851,7.12300709 C53.4547333,7.1486092 53.6499632,7.5215967 53.7295379,8.05673086 L53.9035149,7.60944705 C54.6285839,5.74701955 56.7034575,4.83387787 58.5366414,5.57031484 C60.3703195,6.30675181 61.2693655,8.41365429 60.5442966,10.2760818 L60.3703195,10.7233656 C60.7889517,10.3885302 61.182377,10.2514837 61.3909517,10.4156384 C61.7127103,10.6671414 61.475469,11.5265688 60.8616069,12.3352941 C60.318423,13.049643 59.6645264,13.4828707 59.2977908,13.4005424 C58.4491586,14.9908848 56.5472736,15.7248117 54.8500092,15.042591 C53.1517563,14.3608723 52.2581471,12.5049708 52.7098943,10.7554937 C52.3871471,10.5607169 52.201308,9.78964184 52.2863195,8.89156022 C52.3826989,7.87550813 52.7879862,7.08334893 53.1922851,7.12300709" id="Fill-97" fill="#733E1E"></path>
                        <path d="M53.1922851,7.12300709 C53.4547333,7.1486092 53.6499632,7.5215967 53.7295379,8.05673086 L53.9035149,7.60944705 C54.6285839,5.74701955 56.7034575,4.83387787 58.5366414,5.57031484 C60.3703195,6.30675181 56.5472736,15.7248117 54.8500092,15.042591 C53.1517563,14.3608723 52.2581471,12.5049708 52.7098943,10.7554937 C52.3871471,10.5607169 52.201308,9.78964184 52.2863195,8.89156022 C52.3826989,7.87550813 52.7879862,7.08334893 53.1922851,7.12300709" id="Fill-99" fill="#975F3F"></path>
                        <path d="M59.5203034,13.0774539 C58.0978437,16.1421762 56.9269586,17.571376 54.3360851,16.1416742 C51.5045103,14.5794439 51.6824414,14.1657943 52.6778667,10.9318972 C52.6284414,11.2255684 52.6294299,11.0257716 52.6556253,11.4464493 C52.6897287,11.9906195 52.9185678,12.3033668 53.4988207,12.5262557 C54.0672115,12.7446265 55.0176598,12.0945339 55.4283839,12.2240504 C55.7812805,12.3354949 55.6394299,13.7260405 56.1519701,13.9353753 C57.2348782,14.3781411 59.6572115,13.0910079 59.5203034,13.0774539" id="Fill-101" fill="#000000"></path>
                        <path d="M61.4124023,12.0663214 C60.9394023,12.8665126 60.2869885,13.3514466 59.9543563,13.1486378 C59.6222184,12.945829 59.6657126,12.0341933 60.1387126,11.2340021 C60.6112184,10.4338108 61.3343103,10.0477713 61.6669425,10.2505801 C61.9990805,10.4528869 61.8854023,11.2661302 61.4124023,12.0663214" id="Fill-103" fill="#733E1E"></path>
                        <path d="M59.4056862,13.4732825 L59.3972839,13.4707725 C59.0928241,13.3688661 58.9267552,13.0350347 59.0270885,12.7252995 L60.2884218,8.83528579 C60.3887552,8.52555054 60.7174333,8.35737987 61.0223874,8.45928628 L61.0302954,8.46179629 C61.3352494,8.5637027 61.5008241,8.89753404 61.4004908,9.20676729 L60.1391575,13.097283 C60.0388241,13.4070182 59.7106402,13.5751889 59.4056862,13.4732825" id="Fill-105" fill="#000000"></path>
                        <path d="M56.3098345,3.21582495 C56.3098345,3.21582495 58.4395701,1.64506063 60.9301103,2.18019478 C61.2316046,2.24445104 63.3306966,3.57977642 63.974708,6.07522847 C64.1442368,6.73084311 64.1012368,7.44368599 63.9554322,8.10482265 C63.7236276,9.15350487 62.3654207,11.0079003 62.3654207,11.0079003 L56.3098345,3.21582495 Z" id="Fill-107" fill="#A968CB"></path>
                        <g id="Group-111" transform="translate(52.885057, 0.000000)" fill="#632982">
                            <path d="M8.61902874,9.89947988 C8.61902874,9.89947988 6.03359195,1.47337594 2.13294828,0.167166673 C-0.515752874,-0.7198709 0.463362069,2.72386297 0.729764368,3.35437751 C1.00901724,4.01702018 2.27282184,5.77553327 2.27282184,5.77553327 C2.27282184,5.77553327 3.27368391,5.40154176 4.88395977,6.47281407 C6.49423563,7.54408639 8.61902874,9.89947988 8.61902874,9.89947988" id="Fill-109"></path>
                        </g>
                        <path d="M54.3359862,16.1416742 C53.8318483,15.9599495 53.3385839,15.7511167 52.8779402,15.4534295 C52.4331126,15.1677903 51.9408368,14.7340606 51.8306184,14.102542 C51.7253425,13.4900995 51.884492,12.9383993 52.0490782,12.4253533 C52.2195954,11.9092952 52.4365724,11.4173332 52.6777678,10.9318972 C52.6056069,11.4705454 52.5013195,12.0006595 52.3920897,12.5192276 C52.2957103,13.0357877 52.1849977,13.5598778 52.2764345,14.0126836 C52.3416759,14.4685015 52.6995149,14.8279349 53.0865149,15.1632723 C53.4843885,15.4910796 53.9168598,15.8038269 54.3359862,16.1416742" id="Fill-112" fill="#5E513A"></path>
                    </g>
                </g>
            </g>
        </g>
    </g>
</svg>