<?xml version="1.0" encoding="UTF-8"?>
<svg width="54px" height="54px" viewBox="0 0 54 54" version="1.1" xmlns="http://www.w3.org/2000/svg" xmlns:xlink="http://www.w3.org/1999/xlink">
    <!-- Generator: sketchtool 60.1 (101010) - https://sketch.com -->
    <title>2775CC54-3DC9-4D89-8744-3590EBE1992F</title>
    <desc>Created with sketchtool.</desc>
    <g id="Landing-Page-Extension" stroke="none" stroke-width="1" fill="none" fill-rule="evenodd">
        <g id="Landing-Page-Unsupported-Browser" transform="translate(-334.000000, -2073.000000)">
            <g id="Group-23" transform="translate(211.000000, 1960.000000)">
                <g id="Group-19" transform="translate(0.000000, 113.000000)">
                    <g id="reduc-icon" transform="translate(123.500000, 0.000000)">
                        <circle id="Oval" fill="#FFF6E8" cx="26.5957031" cy="26.5957031" r="26.5957031"></circle>
                        <g id="Group-5" transform="translate(10.500000, 13.000000)" stroke-width="2">
                            <path d="M30.238566,11.8287054 C31.4752587,10.2152482 31.8118678,8.0393658 30.9265397,6.0699989 C29.8706015,3.71923742 27.3898383,2.36765942 24.8565088,2.53638697 L24.3013343,1.30080916 C23.8125594,0.215504334 22.4818006,-0.292435903 21.3428629,0.172443656 L5.8044324,6.51554509" id="Path" stroke="#FCA927" fill="#FCA927" stroke-linecap="round" stroke-linejoin="round"></path>
                            <path d="M6.37251794,6.96548523 L25.6274821,6.96548523 C26.8669414,6.96548523 27.8804577,7.93391108 27.8804577,9.11236758 L27.8804577,10.4560365 C30.2791435,11.2522196 32,13.4254656 32,15.9827426 C32,18.5400196 30.2791435,20.7123868 27.8804577,21.5094488 L27.8804577,22.8531177 C27.8804577,24.0315742 26.8641748,25 25.6274821,25 L6.37251794,25 C5.13674746,25 4.12046457,24.0342105 4.12046457,22.8531177 L4.12046457,21.5094488 C1.72085651,20.7123868 0,18.5400196 0,15.9827426 C0,13.4254656 1.72085651,11.2522196 4.12046457,10.4560365 L4.12046457,9.11236758 C4.12046457,7.93127471 5.13305859,6.96548523 6.37251794,6.96548523 Z" id="Path" stroke="#FDCC3F" fill="#FDCC3F" stroke-linecap="round" stroke-linejoin="round"></path>
                            <path d="M20.6151061,17 L21.3848939,17 C22.2736679,17 23,17.5247617 23,18.1668847 L23,19.8338628 C23,20.4752383 22.2736679,21 21.3848939,21 L20.6151061,21 C19.7273668,21 19,20.4752383 19,19.8338628 L19,18.1668847 C19,17.5247617 19.7273668,17 20.6151061,17 Z M11.614489,11 L12.385511,11 C13.2734799,11 14,11.5248598 14,12.1663551 L14,13.8343925 C14,14.4758879 13.2734799,15 12.385511,15 L11.614489,15 C10.7265201,15 10,14.4758879 10,13.8343925 L10,12.1663551 C10,11.5248598 10.7265201,11 11.614489,11 Z" id="Stroke-1" stroke="#FFFFFF"></path>
                            <path d="M20,10.882654 L13,20.882654 L20,10.882654 Z" id="Path" stroke="#FFFFFF" stroke-linecap="round" stroke-linejoin="round"></path>
                        </g>
                    </g>
                </g>
            </g>
        </g>
    </g>
</svg>