<?xml version="1.0" encoding="UTF-8"?>
<svg width="54px" height="54px" viewBox="0 0 54 54" version="1.1" xmlns="http://www.w3.org/2000/svg" xmlns:xlink="http://www.w3.org/1999/xlink">
    <!-- Generator: sketchtool 60.1 (101010) - https://sketch.com -->
    <title>FA974077-4BB5-461B-B64C-D3A0AD98B0A1</title>
    <desc>Created with sketchtool.</desc>
    <g id="Landing-Page-Extension" stroke="none" stroke-width="1" fill="none" fill-rule="evenodd">
        <g id="Landing-Page-Unsupported-Browser" transform="translate(-1050.000000, -2073.000000)">
            <g id="Group-23" transform="translate(211.000000, 1960.000000)">
                <g id="Group-20" transform="translate(715.000000, 113.000000)">
                    <g id="shield-icon" transform="translate(124.500000, 0.000000)">
                        <circle id="Oval" fill="#FFF6E8" cx="26.5957031" cy="26.5957031" r="26.5957031"></circle>
                        <g id="Group-5" transform="translate(15.500000, 13.000000)" stroke-linecap="round" stroke-linejoin="round">
                            <g id="Group-22">
                                <path d="M11.2903959,26.1065545 C4.72309735,23.1105689 0.290395868,17.4253916 0.290395868,10.9028565 C0.290395868,7.56133224 0.327897572,4.21269164 0.327897572,0.867213873 C1.3119423,2.08885489 3.29503244,2.92304989 5.58038632,2.92304989 C8.31351055,2.92304989 10.6138651,1.72908359 11.2903959,0.106554545 C11.9669266,1.72908359 14.2672812,2.92304989 17.0011554,2.92304989 C19.2857593,2.92304989 21.2688494,2.08885489 22.2528942,0.867213873 C22.2528942,4.21269164 22.2903959,7.56133224 22.2903959,10.9028565 C22.2903959,17.4253916 17.8569443,23.1105689 11.2903959,26.1065545 Z" id="Stroke-1" stroke="#FCA927" stroke-width="2" fill="#FCA927"></path>
                                <path d="M11.2903959,27.2131091 C4.54972314,24.4230273 1.8189894e-12,19.1285727 1.8189894e-12,13.0543091 C1.8189894e-12,9.94243636 0.0384917355,6.82393636 0.0384917355,3.70838182 C1.04851488,4.84606364 3.08395785,5.62292727 5.42964421,5.62292727 C8.2349219,5.62292727 10.596005,4.51101818 11.2903959,3 C11.9847868,4.51101818 14.3458698,5.62292727 17.1519174,5.62292727 C19.4968339,5.62292727 21.5322769,4.84606364 22.5423,3.70838182 C22.5423,6.82393636 22.5807917,9.94243636 22.5807917,13.0543091 C22.5807917,19.1285727 18.0302988,24.4230273 11.2903959,27.2131091 Z" id="Stroke-1" stroke="#FDCC3E" stroke-width="2" fill="#FDCC3E"></path>
                                <polyline id="Stroke-3" stroke="#FFFFFF" stroke-width="3" points="6.54359504 14.4425018 10.9154864 19.2870382 17.0972591 10.2496473"></polyline>
                            </g>
                        </g>
                    </g>
                </g>
            </g>
        </g>
    </g>
</svg>