<?xml version="1.0" encoding="UTF-8"?>
<svg width="80px" height="182px" viewBox="0 0 80 182" version="1.1" xmlns="http://www.w3.org/2000/svg" xmlns:xlink="http://www.w3.org/1999/xlink">
    <!-- Generator: sketchtool 60.1 (101010) - https://sketch.com -->
    <title>B607DC52-B545-4075-89A5-B0DEBF7AB619</title>
    <desc>Created with sketchtool.</desc>
    <defs>
        <polygon id="path-1" points="0.421729455 0.237391636 8.17902675 0.237391636 8.17902675 4.6611356 0.421729455 4.6611356"></polygon>
        <path d="M7.1303949,7.51235224 C5.35580892,11.5572857 0.0579745223,19.1213766 0.465210191,26.6528395 L0.465210191,26.6528395 C1.37159236,43.3877146 19.129707,22.0285268 19.129707,22.0285268 L19.129707,22.0285268 L27.6001146,69.3148152 C27.6001146,69.3148152 25.6921401,77.7011304 25.9103694,80.5723899 L25.9103694,80.5723899 C26.7960127,92.2219661 34.525949,116.008673 34.525949,116.008673 L34.525949,116.008673 L41.0897962,114.081294 C41.0897962,114.081294 41.8246115,58.6697138 41.2085732,46.8336921 L41.2085732,46.8336921 C40.3380127,30.1114021 37.9294777,17.4438339 34.1705605,10.4577238 L34.1705605,10.4577238 C30.8801529,4.34091558 28.1350828,1.10235857 27.5199873,0.371958621 L27.5199873,0.371958621 C25.3490064,2.22336168 13.6023312,7.48485154 7.1303949,7.51235224" id="path-3"></path>
        <path d="M11.8885478,0.145893544 C8.59059873,0.208818875 0.635363057,0.4950126 0.635363057,0.4950126 L0.635363057,0.4950126 C0.635363057,0.4950126 -0.217757962,4.22345496 1.0133758,6.42304485 L1.0133758,6.42304485 C1.87450955,7.96028737 6.09533758,12.0644173 12.3424459,9.10413005 L12.3424459,9.10413005 C16.1833758,7.28442271 19.0590064,3.80208831 19.0590064,3.80208831 L19.0590064,3.80208831 C19.0590064,3.80208831 15.3590064,0.144961317 11.9766879,0.144961317 L11.9766879,0.144961317 C11.9469936,0.144961317 11.9177707,0.145427431 11.8885478,0.145893544" id="path-5"></path>
        <linearGradient x1="100%" y1="90.5714463%" x2="50%" y2="35.7036443%" id="linearGradient-7">
            <stop stop-color="#4038A4" offset="0%"></stop>
            <stop stop-color="#4F2267" offset="100%"></stop>
        </linearGradient>
        <path d="M7.90480255,0.374289188 C1.37866242,0.95320223 0.00942675159,9.62804169 0.529783439,15.8921418 L0.529783439,15.8921418 C0.900254777,20.350518 1.60867516,33.3499591 1.60867516,33.3499591 L1.60867516,33.3499591 C1.60867516,33.3499591 12.0813248,35.1314451 20.0808662,34.5683799 L20.0808662,34.5683799 C28.819465,33.9540423 33.4187771,30.9578643 33.4187771,30.9578643 L33.4187771,30.9578643 C33.4187771,30.9578643 32.9168025,19.1358261 32.3101911,15.5672607 L32.3101911,15.5672607 C31.2562803,9.36888255 26.0979618,1.08324791 19.6161274,0.134240705 L19.6161274,0.134240705 C18.9906624,0.0424163339 18.0083949,0.00745781696 16.872,0.00745781696 L16.872,0.00745781696 C13.1941529,0.00745781696 7.90480255,0.374289188 7.90480255,0.374289188" id="path-8"></path>
        <linearGradient x1="58.4527221%" y1="50%" x2="4.73300051%" y2="9.73222673%" id="linearGradient-10">
            <stop stop-color="#4038A4" offset="0%"></stop>
            <stop stop-color="#632982" offset="100%"></stop>
        </linearGradient>
        <linearGradient x1="28.9694548%" y1="100%" x2="57.1108245%" y2="55.9772519%" id="linearGradient-11">
            <stop stop-color="#4038A4" offset="0%"></stop>
            <stop stop-color="#78369B" offset="100%"></stop>
        </linearGradient>
        <linearGradient x1="0%" y1="68.9885436%" x2="66.9059444%" y2="52.2699862%" id="linearGradient-12">
            <stop stop-color="#4038A4" offset="0%"></stop>
            <stop stop-color="#78369B" offset="100%"></stop>
        </linearGradient>
    </defs>
    <g id="Landing-Page-Extension" stroke="none" stroke-width="1" fill="none" fill-rule="evenodd">
        <g id="Landing-Page-Unsupported-Browser" transform="translate(-1124.000000, -4538.000000)">
            <g id="woman-mini-illustration" transform="translate(1164.000000, 4629.000000) scale(-1, 1) translate(-1164.000000, -4629.000000) translate(1124.000000, 4538.000000)">
                <path d="M80,176.5 C80,179.539474 62.0969686,182 40.0037082,182 C17.9104478,182 0,179.539474 0,176.5 C0,173.460526 17.9252804,171 40.0037082,171 C62.0821359,171 80,173.460526 80,176.5 Z" id="Path" fill-opacity="0.273601399" fill="#DDDCDC" fill-rule="nonzero"></path>
                <g id="Group-119" transform="translate(6.000000, 0.000000)">
                    <g id="Group-20" transform="translate(6.598726, 0.500140)">
                        <path d="M18.0217809,8.11079544 L13.4432076,25.2344093 L35.8784051,21.1181604 L33.1729274,7.45217698 C33.1729274,7.45217698 23.0584943,0.495898216 18.0217809,8.11079544" id="Fill-1" fill="#A23B01"></path>
                        <path d="M21.1851159,2.67721645 C21.1851159,2.67721645 22.3559185,0.752167451 24.8064025,0.166262707 C26.4212051,-0.219679321 28.5148866,1.49235578 30.3007847,2.80073655 C31.8071796,3.90402734 32.8926701,3.76605773 33.9277274,5.78199887 C35.9804025,9.78265156 37.7493325,16.7053701 42.2883134,18.7306336 C49.0482369,21.7468544 50.9741223,21.351124 52.8886955,23.9445798 C53.6192688,24.9341389 54.6552688,27.0293194 53.2770777,29.8171446 C52.3612688,31.6694799 49.6557911,31.9025367 49.6557911,31.9025367 C49.6557911,31.9025367 50.7389248,31.6172752 50.6130777,30.5857658 C50.5621732,30.1648653 50.7384535,28.9800046 49.3230268,28.5274084 C49.3230268,28.5274084 49.0251414,32.0670747 45.5287592,31.7379986 C42.0323771,31.4089224 31.7096127,29.8446453 31.7096127,29.8446453 C31.7096127,29.8446453 35.2889503,30.1737215 34.3736127,26.7985932 C33.4578038,23.4229988 29.8016382,20.5829689 31.4664025,14.1617885 C33.1311669,7.74014194 27.0542115,6.54642511 25.5558293,6.29938493 L21.1851159,2.67721645 Z" id="Fill-3" fill="#D24C00"></path>
                        <path d="M27.0761287,6.64505474 C28.9581796,7.0286662 30.9156446,8.13755036 31.6891096,10.0961595 C32.0939885,11.0437684 32.1340522,12.0990495 32.0115045,13.0872103 C31.8800013,14.1014734 31.5915427,15.0010725 31.5081159,15.9319013 C31.2149439,17.7907622 31.5005745,19.6817849 32.1873134,21.4441603 C32.8391732,23.2167901 33.9760395,24.8789511 34.3733771,26.7984067 C33.6875809,24.985225 32.4625745,23.4680253 31.661772,21.6585725 C30.8322178,19.8696287 30.521135,17.8089406 30.7766,15.8424075 C30.891135,14.8519162 31.2140013,13.8982478 31.3464471,13.0023776 C31.4906764,12.0864644 31.438358,11.1537712 31.1583834,10.2881983 C30.5927783,8.52209405 28.8818229,7.3171905 27.0761287,6.64505474" id="Fill-5" fill="#FE8B1E"></path>
                        <path d="M5.95502038,173.31617 C5.95502038,173.31617 4.5843707,169.749469 3.9372242,168.252779 C3.84012866,168.027646 5.60245987,158.235532 5.60245987,158.235532 L1.05028153,160.507836 L1.83977197,169.018603 C1.83977197,169.018603 1.57393758,171.498793 4.2219121,173.812115 C4.30910955,173.889024 5.95502038,173.31617 5.95502038,173.31617" id="Fill-7" fill="#FFE7E1"></path>
                        <path d="M1.90377962,169.116161 C1.90377962,169.116161 0.213563057,169.663844 0.439333758,171.643428 C0.664633121,173.622547 0.486938854,174.997582 0.486938854,174.997582 L1.27312994,175.100127 L1.77274777,172.993759 C1.77274777,172.993759 2.53207261,173.591317 3.30318089,175.14767 C3.65055669,175.848705 7.95292611,175.809551 7.95292611,175.809551 C7.95292611,175.809551 8.90691338,175.135085 7.35008535,174.217308 C6.96405987,173.989844 5.88988153,173.19279 5.88988153,173.19279 C5.88988153,173.19279 5.1508242,173.941368 4.21050573,173.116813 C3.78912994,172.747652 3.21598344,171.833137 2.69468408,171.026294 C2.05225096,170.032074 1.90377962,169.116161 1.90377962,169.116161" id="Fill-9" fill="#632982"></path>
                        <g id="Group-13" transform="translate(0.000000, 171.529790)">
                            <mask id="mask-2" fill="white">
                                <use xlink:href="#path-1"></use>
                            </mask>
                            <g id="Clip-12"></g>
                            <path d="M0.447205096,0.237391636 C0.447205096,0.237391636 2.12610955,1.66742804 2.39995669,2.08459967 C2.67380382,2.5013052 3.44208408,3.65213957 3.57971465,3.76866796 C3.71781656,3.88519635 7.43619873,4.1205837 8.17902675,3.97702073 C8.17902675,3.97702073 8.10926879,4.60440958 7.96928153,4.64915648 C7.82929427,4.69343727 1.00526879,4.61839298 0.659307006,4.40770966 C0.313345223,4.19656021 0.447205096,0.237391636 0.447205096,0.237391636" id="Fill-11" fill="#C1A88B" mask="url(#mask-2)"></path>
                        </g>
                        <path d="M50.8579847,172.485929 C50.8579847,172.485929 49.5405962,169.614669 48.8934497,168.117979 C48.7963541,167.893312 49.707921,156.724765 49.707921,156.724765 L45.862749,159.436147 L46.7427363,168.188362 C46.7427363,168.188362 46.4764306,170.668552 49.1244051,172.981874 C49.2120739,173.058782 50.8579847,172.485929 50.8579847,172.485929" id="Fill-16" fill="#FFE7E1"></path>
                        <path d="M46.8065083,168.285873 C46.8065083,168.285873 45.1162917,168.834022 45.3420624,170.81314 C45.5673618,172.792259 45.3896675,174.167294 45.3896675,174.167294 L46.1758586,174.269839 L46.6754764,172.163937 C46.6754764,172.163937 47.4348013,172.761029 48.2063809,174.317848 C48.5532854,175.018883 52.8556548,174.979263 52.8556548,174.979263 C52.8556548,174.979263 53.809642,174.304797 52.252814,173.387019 C51.8663172,173.160022 50.7926102,172.362968 50.7926102,172.362968 C50.7926102,172.362968 50.0535529,173.11108 49.1137057,172.286991 C48.6918586,171.91783 48.1187121,171.002849 47.5974127,170.196006 C46.9545083,169.201786 46.8065083,168.285873 46.8065083,168.285873" id="Fill-18" fill="#632982"></path>
                    </g>
                    <g id="Group-23" transform="translate(16.496815, 49.908177)">
                        <mask id="mask-4" fill="white">
                            <use xlink:href="#path-3"></use>
                        </mask>
                        <g id="Clip-22"></g>
                        <path d="M7.1303949,7.51235224 C5.35580892,11.5572857 0.0579745223,19.1213766 0.465210191,26.6528395 L0.465210191,26.6528395 C1.37159236,43.3877146 19.129707,22.0285268 19.129707,22.0285268 L19.129707,22.0285268 L27.6001146,69.3148152 C27.6001146,69.3148152 25.6921401,77.7011304 25.9103694,80.5723899 L25.9103694,80.5723899 C26.7960127,92.2219661 34.525949,116.008673 34.525949,116.008673 L34.525949,116.008673 L41.0897962,114.081294 C41.0897962,114.081294 41.8246115,58.6697138 41.2085732,46.8336921 L41.2085732,46.8336921 C40.3380127,30.1114021 37.9294777,17.4438339 34.1705605,10.4577238 L34.1705605,10.4577238 C30.8801529,4.34091558 28.1350828,1.10235857 27.5199873,0.371958621 L27.5199873,0.371958621 C25.3490064,2.22336168 13.6023312,7.48485154 7.1303949,7.51235224" id="Fill-21" fill="#3F95B6" mask="url(#mask-4)"></path>
                    </g>
                    <g id="Group-32" transform="translate(2.356688, 19.144682)">
                        <path d="M23.3459631,33.5513201 C18.2738994,37.7957502 10.1437975,39.1302333 6.5899121,54.3208743 C5.00904586,61.0771903 6.4381414,94.0393429 6.4381414,94.0393429 C6.4381414,94.0393429 1.78556815,103.683699 1.18838344,108.815143 C-0.888801274,126.658436 1.10118599,146.139186 1.10118599,146.139186 L9.44386115,145.970919 C9.44386115,145.970919 12.501428,136.347072 17.4952497,113.239959 C18.3073643,109.48355 23.2667783,97.4965072 23.2667783,97.4965072 C23.2667783,97.4965072 31.3148675,67.0811991 32.6548803,59.002985 C33.8794153,51.6244073 35.7977592,32.5230736 35.7977592,32.5230736 C35.7977592,32.5230736 25.4773516,34.1526066 23.3459631,33.5513201" id="Fill-24" fill="#76B7D5"></path>
                        <path d="M27.0905126,38.0962861 C28.201486,36.7803514 29.302112,33.1265795 29.302112,33.1265795 L24.1890523,32.8619133 L23.1014022,34.4786806 C23.1014022,34.4786806 19.7097461,40.4137983 18.6177215,43.6054585 C21.6314678,43.0535435 24.4557315,41.2171528 27.0905126,38.0962861 Z" id="Fill-21" fill="#244B72" opacity="0.326218378" transform="translate(23.959917, 38.233686) rotate(29.000000) translate(-23.959917, -38.233686) "></path>
                        <path d="M42.5563847,35.0741131 C42.5563847,35.0741131 43.2437403,36.5701654 36.6057982,37.1975543 C30.5289854,37.7713401 23.6849627,34.6783961 23.615493,34.0671546 C23.5460232,33.4559131 23.6849627,31.5460996 23.615493,29.8545735 C23.4572165,26.0049416 21.3562937,14.7058828 21.3562937,14.7058828 C20.9591702,8.93959196 21.1869164,0.95320223 26.1450513,0.374755302 L34.2970043,0.328143946 C39.2547811,-0.250302982 42.9814393,12.2713717 43.3785628,18.0381286 L42.5563847,35.0741131 Z" id="Fill-26" fill="#F5B740"></path>
                        <path d="M49.5917363,152.292817 C49.5917363,152.292817 51.2711121,153.722388 51.5449592,154.139559 C51.8188064,154.556265 52.5866153,155.707099 52.7247172,155.823627 C52.8623478,155.940156 56.5807299,156.175543 57.323558,156.03198 C57.323558,156.03198 57.2542713,156.659369 57.1142841,156.704116 C56.9742968,156.748397 50.1502713,156.673819 49.8038382,156.462669 C49.4578764,156.25152 49.5917363,152.292817 49.5917363,152.292817" id="Fill-28" fill="#C1A88B"></path>
                        <path d="M60.9158102,26.2459689 L58.9974662,27.2597659 C58.9974662,27.2597659 59.5899376,28.1430511 60.190893,28.1551701 C60.7923197,28.167289 62.5131732,26.2925803 62.5131732,26.2925803 L60.9158102,26.2459689 Z" id="Fill-30" fill="#FFE7E1"></path>
                    </g>
                    <g id="Group-35" transform="translate(45.248408, 44.314814)">
                        <mask id="mask-6" fill="white">
                            <use xlink:href="#path-5"></use>
                        </mask>
                        <g id="Clip-34"></g>
                        <path d="M0.635363057,0.4950126 C0.635363057,0.4950126 -0.217757962,4.22345496 1.0133758,6.42304485 C1.87450955,7.96028737 6.09533758,12.0644173 12.3424459,9.10413005 C16.1833758,7.28442271 19.0590064,3.80208831 19.0590064,3.80208831 C19.0590064,3.80208831 15.3590064,0.144961317 11.9766879,0.144961317 C11.9469936,0.144961317 11.9177707,0.145427431 11.8885478,0.145893544 C8.59059873,0.208818875 0.635363057,0.4950126 0.635363057,0.4950126 Z" id="Fill-33" fill="url(#linearGradient-7)" mask="url(#mask-6)"></path>
                    </g>
                    <g id="Group-38" transform="translate(18.382166, 19.144682)">
                        <mask id="mask-9" fill="white">
                            <use xlink:href="#path-8"></use>
                        </mask>
                        <g id="Clip-37"></g>
                        <path d="M7.90480255,0.374289188 C1.37866242,0.95320223 0.00942675159,9.62804169 0.529783439,15.8921418 L0.529783439,15.8921418 C0.900254777,20.350518 1.60867516,33.3499591 1.60867516,33.3499591 L1.60867516,33.3499591 C1.60867516,33.3499591 12.0813248,35.1314451 20.0808662,34.5683799 L20.0808662,34.5683799 C28.819465,33.9540423 33.4187771,30.9578643 33.4187771,30.9578643 L33.4187771,30.9578643 C33.4187771,30.9578643 32.9168025,19.1358261 32.3101911,15.5672607 L32.3101911,15.5672607 C31.2562803,9.36888255 26.0979618,1.08324791 19.6161274,0.134240705 L19.6161274,0.134240705 C18.9906624,0.0424163339 18.0083949,0.00745781696 16.872,0.00745781696 L16.872,0.00745781696 C13.1941529,0.00745781696 7.90480255,0.374289188 7.90480255,0.374289188" id="Fill-36" fill="url(#linearGradient-10)" mask="url(#mask-9)"></path>
                    </g>
                    <path d="M12.6962318,27.0799859 C17.0033146,20.5366838 19.6055271,18.1653777 26.5158073,21.9413636 C26.1367796,25.9814709 22.81135,32.1702781 16.5395185,40.5077854 C13.8736331,45.1880316 17.9012127,51.8376077 14.8667414,53.5328627 C11.8002191,55.24583 4.09997707,56.825955 4.04435924,46.6176019 C4.01136561,40.5478711 9.17109809,32.4351646 12.6962318,27.0799859 Z" id="Fill-14" fill="url(#linearGradient-11)"></path>
                    <g id="Group-47" transform="translate(27.337580, 6.559616)">
                        <path d="M4.19325478,15.0110007 L4.19325478,15.0110007 C3.30855414,15.0739261 2.53933121,14.4157737 2.4752293,13.5404125 L2.1792293,9.47590222 C2.11559873,8.60100707 2.78112739,7.83984363 3.66629936,7.7769183 C4.55147134,7.71399297 5.32069427,8.37214532 5.38432484,9.24750658 L5.68032484,13.3120168 C5.74442675,14.1873781 5.07842675,14.9480754 4.19325478,15.0110007" id="Fill-39" fill="#FFE7E1"></path>
                        <path d="M2.20732102,9.85960691 C2.12813631,8.77216397 2.78141019,7.83993685 3.66611083,7.77701152 C4.5512828,7.71362008 5.33276051,8.54423444 5.41241656,9.63121126 L5.6198051,12.4754362 C5.66316815,13.0692649 4.45183057,12.7868001 3.4738051,11.9249561 C2.83325732,11.3604926 2.25209809,10.475809 2.25209809,10.475809 L2.20732102,9.85960691 Z" id="Fill-41" fill="#EDB8AB"></path>
                        <path d="M0.611749045,3.39820091 C0.895965605,3.35158955 1.20469172,3.68066572 1.43658981,4.20830627 L1.49644968,3.70024249 C1.74720127,1.58595139 3.68345605,0.0729467721 5.82144331,0.320453072 C7.95943057,0.567959373 9.27069172,2.15414382 9.27069172,4.80912665 C9.27069172,5.70499691 8.88513758,7.75869326 8.78709936,8.15255922 C8.20923949,10.4686775 6.52750701,11.3025547 4.54836051,11.0736929 C2.56874268,10.844365 1.11325223,9.18593298 1.10618217,7.26321454 C0.711672611,7.15274563 0.30302293,6.4125573 0.144653503,5.46634677 C-0.0349261146,4.39568393 0.174347771,3.4699824 0.611749045,3.39820091" id="Fill-43" fill="#FFE7E1"></path>
                        <path d="M0.611749045,3.39820091 C0.895965605,3.35158955 1.20469172,3.68066572 1.43658981,4.20830627 L1.49644968,3.70024249 C1.74720127,1.58595139 3.68345605,0.0729467721 5.82144331,0.320453072 C7.95943057,0.567959373 6.52750701,11.3025547 4.54836051,11.0736929 C2.56874268,10.844365 1.11325223,9.18593298 1.10618217,7.26321454 C0.711672611,7.15274563 0.30302293,6.4125573 0.144653503,5.46634677 C-0.0349261146,4.39568393 0.174347771,3.4699824 0.611749045,3.39820091" id="Fill-45" fill="#FFE7E1"></path>
                    </g>
                    <g id="Group-118" transform="translate(0.000000, 0.034026)">
                        <path d="M33.4401287,5.75678213 C33.4401287,5.75678213 30.4061287,-0.693297309 25.635721,2.50610617 C20.864842,5.70597575 18.0226764,18.1540045 10.8625873,21.0000939 C7.07821783,22.5047084 2.88189936,23.434605 1.2694535,25.3713068 C-0.168126115,27.0982576 -0.562164331,30.063672 1.58854904,31.2308204 C1.58854904,31.2308204 1.33544076,27.0600363 4.26338981,26.8409629 C4.26338981,26.8409629 2.11738981,28.8755486 3.19203949,31.8908372 C4.26716051,34.907058 9.47732611,33.5087174 9.47732611,33.5087174 C9.47732611,33.5087174 6.40231975,32.1085122 8.28955541,30.1060884 C8.28955541,30.1060884 9.12382293,33.7487658 12.7375682,33.5581254 C15.1922943,33.4285458 20.6098484,33.2845167 23.7093643,32.9484489 C25.1728675,32.7899703 25.7573261,32.226439 25.7573261,32.226439 C25.7573261,32.226439 22.0577975,32.4133505 23.1470586,28.9776275 C24.2358484,25.5414383 30.0229312,25.22821 28.5872369,18.5464721 C28.3624089,17.5009794 27.0586892,16.1068337 27.8316828,14.0582646 C28.2554153,12.9353971 26.6194025,12.2679224 27.8637338,10.7483922 C28.0574535,10.5125388 28.9713771,11.7416802 29.1415299,11.5016318 C29.5308548,10.9520839 29.5181287,10.2011749 30.220893,9.31742361 C31.4652242,7.75268039 32.6261287,8.27472758 33.5141287,7.31453365 C34.3630076,6.39628994 33.4401287,5.75678213 33.4401287,5.75678213" id="Fill-53" fill="#D24C00"></path>
                        <path d="M32.946214,11.9018369 C32.5691439,13.9145152 29.6836153,13.3486533 29.9244688,11.4044937 C30.0324051,10.5351919 30.8723287,9.93856654 31.7320484,10.1273425 C32.5658446,10.3105252 33.0074879,11.1010538 32.946214,11.9018369 C32.9226471,12.2057429 33.500507,12.1386225 33.5212459,11.8668783 C33.7220357,9.24032843 29.6723032,8.87396317 29.3499083,11.4394522 C29.2080357,12.5665148 30.0823669,13.5546755 31.2060357,13.6544238 C32.3560994,13.7565027 33.316214,12.9617791 33.5212459,11.8668783 C33.575921,11.5732268 32.9961758,11.6342877 32.946214,11.9018369" id="Fill-55" fill="#414141"></path>
                        <path d="M37.5541987,12.5391073 C37.4118548,13.3590011 36.7246446,14.331314 35.7565172,13.7687149 C35.1682879,13.4275198 34.9151796,12.6873314 34.9915363,12.0445608 C35.0909885,11.2069548 35.8578548,10.2742615 36.7892178,10.8144871 C37.396772,11.1673351 37.6008611,11.8865483 37.5541987,12.5391073 C37.5391159,12.7497906 38.0656,12.6500423 38.0783261,12.4747836 C38.1518548,11.446071 37.5655108,10.3642214 36.4097911,10.3516364 C35.404428,10.3404497 34.5908994,11.1472922 34.4669376,12.1088845 C34.3396764,13.1049692 34.9745682,14.1560553 36.0449758,14.2255062 C37.1158548,14.2949571 37.9067592,13.4634105 38.0783261,12.4747836 C38.1132051,12.2743548 37.5848357,12.3610519 37.5541987,12.5391073" id="Fill-57" fill="#414141"></path>
                        <path d="M33.2965121,11.8251146 C33.7037478,11.7025267 34.1142828,11.765452 34.3961427,12.1122405 C34.5464994,12.2977537 35.0875949,12.0842737 34.916028,11.8726581 C34.4979516,11.3576027 33.8159261,11.2816262 33.1994166,11.4671394 C32.8581682,11.5696843 32.9505503,11.9290579 33.2965121,11.8251146" id="Fill-59" fill="#414141"></path>
                        <path d="M29.6388382,10.4256552 C29.0722904,10.5034962 28.5057427,10.5813371 27.9391949,10.658712 C27.5875771,10.7071878 27.7374624,11.2348284 28.0867236,11.1872848 C28.6532713,11.1094438 29.2193478,11.0316028 29.7858955,10.9537619 C30.1375134,10.9057522 29.9880994,10.3776455 29.6388382,10.4256552" id="Fill-61" fill="#050405"></path>
                        <path d="M28.9730268,11.5244713 C29.2775108,12.5811508 29.1243261,13.5502009 28.6308357,13.6895688 C28.1373452,13.8284706 27.4906701,13.0850195 27.186186,12.0283401 C26.8817019,10.9716606 27.0348866,10.0021444 27.5283771,9.86324259 C28.0213962,9.72434075 28.6685427,10.4677919 28.9730268,11.5244713" id="Fill-63" fill="#FFE7E1"></path>
                        <path d="M33.2334471,11.884311 C33.104772,12.8664123 32.1946191,13.559057 31.2015108,13.4313419 C30.2088739,13.3036268 29.5079949,12.4040276 29.6371414,11.4219263 C29.7662879,10.4398251 30.6759694,9.74718032 31.669549,9.87489543 C32.662186,10.0026105 33.3625936,10.9022097 33.2334471,11.884311" id="Fill-65" fill="#D0DFE6"></path>
                        <path d="M37.816121,12.506759 C37.6964013,13.4893264 36.9078535,14.1898951 36.0561465,14.0710361 C35.2034968,13.9521772 34.6091401,13.0595697 34.7293312,12.0765362 C34.849051,11.0939688 35.6375987,10.3938663 36.4902484,10.5122591 C37.3424268,10.6315842 37.9363121,11.5241917 37.816121,12.506759" id="Fill-67" fill="#D0DFE6"></path>
                        <g id="Group-71" fill="#FE8B1E">
                            <path d="M33.1774994,0.99272866 C32.505372,0.721450568 31.7941236,0.629626197 31.1309516,0.886454768 C30.4550535,1.10832482 29.8206331,1.44625715 29.2668115,1.88673447 C29.2163783,1.92682023 29.1456777,1.93800696 29.0872318,1.92495578 C28.2124293,1.72825586 27.294735,1.88953115 26.4972318,2.30064331 C26.0932955,2.49780934 25.7204675,2.75976516 25.3839325,3.06087452 C25.0214739,3.32842371 24.7174611,3.67008495 24.4143911,4.0122123 C23.2167223,5.39517123 22.2731045,7.01258528 21.3549389,8.63186379 C19.519079,11.8680902 17.8684548,15.3019488 15.2779834,18.1415126 C14.006786,19.5566334 12.4113083,20.7703931 10.5900599,21.4448594 C8.81783057,22.1305125 6.99799618,22.6427713 5.24320637,23.294398 C3.52706624,23.9544148 1.68130828,24.6946032 0.810747771,26.3404502 C0.363448408,27.1314449 0.117881529,28.0524853 0.184811465,28.9660678 C0.239957962,29.8833793 0.764556688,30.7582745 1.58845478,31.2309136 C0.742403822,30.8062842 0.14286242,29.935584 0.0344547771,28.9828479 C-0.0862076433,28.0357052 0.115996178,27.0619939 0.54208535,26.2029467 C0.942250955,25.3280515 1.67046752,24.5920582 2.49200892,24.0979778 C3.30695159,23.5819901 4.1812828,23.1909208 5.05985605,22.8324795 C6.82312994,22.1267836 8.61327006,21.5320227 10.3572191,20.856158 C12.0804293,20.1947429 13.5396904,19.0616208 14.7609261,17.6819247 C17.2029261,14.9118118 18.8940854,11.5460058 20.7723656,8.30651653 C21.7216395,6.6900347 22.6671427,5.0399927 23.9727478,3.6202108 C24.3031554,3.26876117 24.6345057,2.919176 25.0389134,2.63531284 C25.4140981,2.32161842 25.8232191,2.05267089 26.2742892,1.84804704 C27.1599325,1.42155313 28.2166713,1.26493898 29.1857414,1.5166403 L29.0066331,1.55486161 C29.6132446,1.10552814 30.2985694,0.75314629 31.0291427,0.554581913 C31.7672573,0.307541727 32.6076522,0.460426974 33.2675248,0.779248649 C34.6292191,1.40850195 35.7396904,2.38081484 36.8996522,3.26689672 C35.6967987,2.44280794 34.5217541,1.52782703 33.1774994,0.99272866 Z" id="Fill-69"></path>
                        </g>
                        <path d="M8.28960255,30.1059952 C8.6954242,31.0046621 9.25772994,31.8152336 9.98358981,32.3838921 C10.7165197,32.9450928 11.6054624,33.2173032 12.525042,33.1907347 C13.484214,33.179548 14.4980611,33.1287416 15.4845707,33.1567084 C16.477679,33.1725563 17.4712586,33.1995909 18.4690803,33.3077292 C17.4863414,33.5025647 16.5003032,33.6158303 15.5133223,33.7179091 C14.5197427,33.8223186 13.553972,33.8908373 12.5325834,33.9206685 C11.4725452,33.9411775 10.3559465,33.5650239 9.60887643,32.8024621 C8.86039236,32.0571465 8.40602293,31.0927576 8.28960255,30.1059952" id="Fill-72" fill="#FE8B1E"></path>
                        <path d="M4.26343694,26.8411493 C3.66012484,27.6950694 3.28399745,28.6683145 3.2156535,29.6420257 C3.19727134,30.1291144 3.20669809,30.6162031 3.33490191,31.0860455 C3.44378089,31.5666086 3.59413758,32.0266627 3.87269809,32.3617983 C4.39164076,33.0959272 5.39370446,33.3965704 6.37691465,33.5298789 C7.38039236,33.6524668 8.42629045,33.6049232 9.47737325,33.5084377 C8.49133503,33.9004392 7.42846879,34.1004019 6.33685096,34.0901474 C5.2763414,34.080359 4.02729682,33.7871736 3.2821121,32.7999451 C2.91399745,32.3133225 2.7452586,31.7511896 2.65146242,31.2202862 C2.55059618,30.6767978 2.5458828,30.1100037 2.65476178,29.5702442 C2.85460892,28.4879285 3.42964076,27.496505 4.26343694,26.8411493" id="Fill-74" fill="#FE8B1E"></path>
                        <polygon id="Fill-76" fill="#D9F5F9" points="27.0112255 44.7398634 40.4221936 44.7813475 45.6884484 42.8343912 27.0173529 42.776127"></polygon>
                        <polygon id="Fill-78" fill="#D9F5F9" points="40.6317032 44.6818323 44.6738943 22.2389305 42.688149 22.2324049 38.645958 44.6757728"></polygon>
                        <polygon id="Fill-80" fill="#76B7D5" points="40.4222879 44.7812543 68.3957019 44.4204824 73.8297529 22.3290302 44.4649503 22.2381381"></polygon>
                        <path d="M56.4325414,32.7356214 C56.5602739,34.1493438 57.6368089,34.9580509 58.8368344,34.5427437 C60.0363885,34.1269704 60.905535,32.6442632 60.7782739,31.2305407 C60.6505414,29.8172844 59.5740064,29.0081113 58.3739809,29.4238846 C57.1739554,29.8391918 56.3048089,31.321899 56.4325414,32.7356214" id="Fill-82" fill="#3F95B6"></path>
                        <path d="M54.9651632,30.300784 C54.9618739,31.2964026 55.7754025,32.1060418 56.7821796,32.1088484 C57.7889567,32.1121013 58.6076701,31.3075893 58.6105081,30.3119707 C58.6137975,29.3163522 57.8007401,28.5067129 56.7934917,28.5039064 C55.7867146,28.5006534 54.9684726,29.3051654 54.9651632,30.300784" id="Fill-84" fill="#76B7D5"></path>
                        <polygon id="Fill-88" fill="#5F5EAA" points="30.9840357 44.1665437 33.6659465 44.1749338 33.6683032 43.5550028 30.985921 43.5461466"></polygon>
                        <path d="M29.3085709,43.8513111 C29.3081006,44.0377566 29.4603427,44.1897096 29.649349,44.1906429 C29.8383554,44.1911079 29.9920115,44.0400871 29.9924839,43.8531756 C29.9929541,43.6667302 29.8402408,43.5147772 29.6517057,43.5143067 C29.4626994,43.5133788 29.3090433,43.6643996 29.3085709,43.8513111" id="Fill-90" fill="#5F5EAA"></path>
                        <path d="M34.3791274,37.0785413 L33.7399936,38.4186178 C33.5787962,38.756084 33.6900318,39.1592722 34.0025287,39.3690233 C34.4276752,39.6528865 35.0088344,39.4524576 35.1624904,38.9686318 L35.4952548,37.9217407 L34.3791274,37.0785413 Z" id="Fill-92" fill="#FFE7E1"></path>
                        <path d="M37.3654752,36.1943705 C37.3654752,36.1943705 37.2113478,34.8971764 36.9224178,34.5983976 C36.7013605,34.3695359 35.7049529,34.2087267 35.7049529,34.2087267 C35.7049529,34.2087267 34.6713096,36.0769099 34.420558,36.7830719 C34.2461631,37.2724911 34.2221248,37.7344097 34.6435006,38.1063683 C34.9225325,38.3524763 35.3495643,38.3342978 35.604558,38.0630197 L37.3654752,36.1943705 Z" id="Fill-94" fill="#FFE7E1"></path>
                        <path d="M38.9139134,35.0270357 L38.9139134,35.0270357 C39.0289197,35.3864092 38.8276586,35.7709529 38.4642573,35.8846846 L36.8018497,36.4062657 L36.5925758,35.7551051 L38.9139134,35.0270357 Z" id="Fill-96" fill="#FFE7E1"></path>
                        <path d="M38.9139134,34.1061817 L38.9139134,34.1061817 C39.0628561,34.4534363 38.8578242,34.8720063 38.4553019,35.0407394 L36.616614,35.8135557 L36.3470089,35.1843024 L38.9139134,34.1061817 Z" id="Fill-98" fill="#FFE7E1"></path>
                        <path d="M38.8047987,33.5050817 L38.8047987,33.5050817 C38.9537414,33.8523363 38.7487096,34.2709063 38.3466586,34.4401055 L36.5079707,35.2124556 L36.2378943,34.5832023 L38.8047987,33.5050817 Z" id="Fill-100" fill="#FFE7E1"></path>
                        <path d="M37.7944866,33.1313984 L37.7944866,33.1313984 C37.9768943,33.4628052 37.8133401,33.8990875 37.4296713,34.1055758 L35.6744102,35.0499219 L35.7092892,34.2300281 L37.7944866,33.1313984 Z" id="Fill-102" fill="#FFE7E1"></path>
                        <path d="M35.4833771,33.5856727 L35.4833771,33.5856727 C35.8274535,33.7483463 35.9547146,34.1962815 35.766651,34.5859524 L34.9069312,36.3693029 L34.5670968,36.456 L35.4833771,33.5856727 Z" id="Fill-104" fill="#FFE7E1"></path>
                        <path d="M34.0592306,37.0471718 C34.0592306,37.0471718 15.3395873,39.9920773 11.4642497,44.9049142 C5.16293758,52.8941006 5.92037707,54.1018009 10.1770268,54.8433876 C15.0497146,55.6921803 31.6723771,51.7642414 35.1522624,46.705977 C37.3882879,43.4557672 34.0592306,37.0471718 34.0592306,37.0471718" id="Fill-106" fill="url(#linearGradient-12)"></path>
                        <path d="M64.1115732,43.2902969 C64.1115732,43.2902969 65.3196115,43.2073286 65.641535,43.4142831 C65.8875732,43.5718295 66.2028981,44.4327412 66.2028981,44.4327412 C66.2028981,44.4327412 64.6762357,45.6712049 64.0757516,46.0151967 C63.6595605,46.2533808 63.2424268,46.3531291 62.8323631,46.040833 C62.5599299,45.8338786 62.5043121,45.4507332 62.7074586,45.1771246 L64.1115732,43.2902969 Z" id="Fill-108" fill="#FFE7E1"></path>
                        <path d="M64.9120459,41.7121762 L64.9120459,41.7121762 C64.5651414,41.6706921 64.2493452,41.9154017 64.2069248,42.2584613 L64.0146191,43.8287979 L64.6433834,43.9043083 L64.9120459,41.7121762 Z" id="Fill-110" fill="#FFE7E1"></path>
                        <path d="M65.8211146,41.3018098 L65.8211146,41.3018098 C65.4789236,41.2281639 65.1324904,41.4817296 65.046707,41.86907 L64.6554968,43.6389032 L65.2748344,43.7726778 L65.8211146,41.3018098 Z" id="Fill-112" fill="#FFE7E1"></path>
                        <path d="M66.3177631,41.5505746 L66.3177631,41.5505746 C65.975572,41.4764626 65.6291389,41.7304944 65.5433554,42.1178348 L65.1521452,43.887668 L65.7710115,44.0214426 L66.3177631,41.5505746 Z" id="Fill-114" fill="#FFE7E1"></path>
                        <path d="M66.9225834,42.1814593 L66.9225834,42.1814593 C66.5898191,42.0751854 66.2202904,42.295191 66.0972713,42.6722769 L65.5354369,44.396431 L66.2033223,44.4327878 L66.9225834,42.1814593 Z" id="Fill-116" fill="#FFE7E1"></path>
                    </g>
                </g>
            </g>
        </g>
    </g>
</svg>